<svg id="Layer_1" data-name="Layer 1" xmlns="http://www.w3.org/2000/svg" viewBox="0 0 321.05 325.17"><defs><style>.cls-1{fill:#ed7163;}.cls-2{fill:#20111d;}.cls-3{fill:#f9b59d;}</style></defs><title>mano-izq</title><path class="cls-1" d="M309.73,253.27c5.23.69,21.89,11.26,19.13,18.41S204.44,260,204.44,260s-38.73-47.49-38.78-49-9.73-42.35-9.16-43.3,41-18.46,41-18.46,37.12,13.5,53,19.21,44.67,14.23,41.27,20.8S208,183.48,208,183.48L228.11,197s41.53,12.52,52.61,13.88,38.22,10.24,37.53,17.29-66.45.78-66.45.78l12,11.56S304.5,252.58,309.73,253.27Z" transform="translate(-8.64 -7.08)"/><path class="cls-2" d="M309.8,252.75c4,.52,14.81,6.78,18.58,13.12,1.32,2.22,1.64,4.24,1,6a.52.52,0,0,1-1-.37c.56-1.44.26-3.15-.89-5.09-3.56-6-14.14-12.14-17.82-12.62-5.21-.68-44.4-12.3-46.06-12.8l-.12,0-13.13-12.67,1.47.14c.16,0,16.62,1.58,32.94,2.25,29.39,1.22,32.83-1.39,32.95-2.57.62-6.26-25.12-15.28-37.08-16.74-11-1.33-52.28-13.77-52.69-13.9l-.14-.07-22.08-14.77,2.3.35c.2,0,20.32,3.11,40.6,5.35,36.72,4.06,42.06,1.85,42.65.71a1.9,1.9,0,0,0,.05-1.66c-2-4.91-19.85-11.07-32.9-15.57-2.92-1-5.68-2-8.14-2.84-15.08-5.44-49.87-18.08-52.79-19.14C182.08,156.5,159.08,166.63,157,168v0c.09,2.11,3.7,18.13,6.11,28.85,1.94,8.64,3,13.55,3.07,14.14a.52.52,0,1,1-1,0c0-.55-1.5-7.07-3-14-4.72-20.94-6-27.26-6.1-29a1.15,1.15,0,0,1,.07-.58c.57-.94,26.08-12.1,41.24-18.67l.19-.08.19.07c.37.14,37.32,13.56,53,19.21,2.45.89,5.21,1.83,8.12,2.84,14.7,5.07,31.37,10.82,33.51,16.17a2.91,2.91,0,0,1-.09,2.52c-.57,1.09-2.29,4.42-43.68-.16-16.3-1.8-32.51-4.14-38.36-5l18.17,12.15c2,.59,41.76,12.54,52.45,13.84,9.9,1.2,37.66,9.58,38,17.39a3.31,3.31,0,0,1,0,.46c-.2,2.1-4,4.76-34,3.5-13.53-.56-27.14-1.72-31.53-2.12L264,240C266.48,240.76,304.81,252.1,309.8,252.75Z" transform="translate(-8.64 -7.08)"/><path class="cls-3" d="M27.43,7.08C6.85,27.55-5.46,85.78,37.56,135c11.26,2,.87-.18,62.63,13.54,8.93,16.28,49.77,90.19,61.2,104.78,10.48,13.39,46.71,33.78,61.76,41.56,6.94,3.59,90.49,46.6,93.18,35.53,2.77-11.43-13.91-23.85-27.19-32.4-2.67-1.69-6.2-4-67.13-43-13.45-17.45-23.07-59.14-23.07-59.14,8.38,7.26,60.78,51.52,68.54,43.43,7.1-7.53-7.92-20.34-19-36.43a112.65,112.65,0,0,1-9.1-15.13c-15-29.85-13.93-46.09-56.72-110.6a84.76,84.76,0,0,0-41.13-32.62C129.37,40,65.88,21.67,27.43,7.08Z" transform="translate(-8.64 -7.08)"/><path class="cls-2" d="M45.51,135.89l.07.54.07.54,16.24,3.61,1,.22h0l7.7,1.71.91.2.12,0,14.88,3.31,13.3,3,.78,1.42c6.67,12.14,48.78,88.43,60.36,103.22,12.57,16,61,41.21,61.47,41.46a.51.51,0,1,0,.47-.91c-.5-.25-48.7-25.31-61.14-41.18C149.9,237.85,105.62,157.39,101,149l-.38-.7-.12-.21-14.27-3.17L71.71,141.7l-.09,0-.93-.21-7.78-1.73h0l-1-.23Z" transform="translate(-8.64 -7.08)"/><path class="cls-2" d="M289,297.3a.52.52,0,1,1-.56.87c-13.18-8.47-66.15-42.36-66.7-42.69l-.08,0,0-.08C208.24,238,198.53,196.42,198.44,196l-.36-1.55,1.2,1c16.63,14.42,61.22,50.34,67.84,43.45a.52.52,0,0,1,.74.71c-3.75,3.9-16.21-2.11-38.1-18.37-13.32-9.87-26.06-20.62-29.95-24,1.9,7.71,10.81,42,22.55,57.32C224.66,256.13,276,289,289,297.3Z" transform="translate(-8.64 -7.08)"/></svg>