<svg id="Layer_1" data-name="Layer 1" xmlns="http://www.w3.org/2000/svg" viewBox="0 0 321.05 325.17"><defs><style>.cls-1{fill:#ed7163;}.cls-2{fill:#20111d;}.cls-3{fill:#f9b59d;}</style></defs><title>mano-der</title><path class="cls-1" d="M34.13,260.1c-5.23.69-21.89,11.26-19.13,18.41s124.43-11.64,124.43-11.64,38.73-47.49,38.78-49,9.73-42.35,9.16-43.3-41-18.46-41-18.46-37.12,13.5-53,19.21-44.67,14.23-41.27,20.8,83.79-5.78,83.79-5.78l-20.15,13.48s-41.53,12.52-52.61,13.88S24.91,227.91,25.61,235s66.45.78,66.45.78l-12,11.56S39.36,259.41,34.13,260.1Z" transform="translate(-14.16 -13.91)"/><path class="cls-2" d="M34.06,259.59c-4,.52-14.81,6.78-18.58,13.12-1.32,2.22-1.64,4.24-1,6a.52.52,0,0,0,1-.37c-.56-1.44-.26-3.15.89-5.09,3.56-6,14.14-12.14,17.82-12.62,5.21-.68,44.4-12.3,46.06-12.8l.12,0L93.48,235.1l-1.47.14c-.16,0-16.62,1.58-32.94,2.25-29.39,1.22-32.83-1.39-32.95-2.57-.62-6.26,25.12-15.28,37.08-16.74,11-1.33,52.28-13.77,52.69-13.9l.14-.07,22.08-14.77-2.3.35c-.2,0-20.32,3.11-40.6,5.35-36.72,4.06-42.06,1.85-42.65.71a1.9,1.9,0,0,1-.05-1.66c2-4.91,19.85-11.07,32.9-15.57,2.92-1,5.68-2,8.14-2.84,15.08-5.44,49.87-18.08,52.79-19.14,15.43,6.69,38.44,16.82,40.53,18.17v0c-.09,2.11-3.7,18.13-6.11,28.85-1.94,8.64-3,13.55-3.07,14.14a.52.52,0,1,0,1,0c0-.55,1.5-7.07,3-14,4.72-20.94,6-27.26,6.1-29a1.16,1.16,0,0,0-.07-.58c-.57-.94-26.08-12.1-41.24-18.67l-.19-.08-.19.07c-.37.14-37.32,13.56-53,19.21-2.45.89-5.21,1.83-8.12,2.84-14.7,5.07-31.37,10.82-33.51,16.17a2.91,2.91,0,0,0,.09,2.52c.57,1.09,2.29,4.42,43.68-.16,16.31-1.8,32.51-4.14,38.36-5l-18.17,12.15c-2,.59-41.76,12.54-52.45,13.84-9.9,1.2-37.66,9.58-38,17.39a3.33,3.33,0,0,0,0,.46c.2,2.1,4,4.76,34,3.5,13.53-.56,27.14-1.72,31.53-2.12L79.83,246.85C77.38,247.59,39,258.93,34.06,259.59Z" transform="translate(-14.16 -13.91)"/><path class="cls-3" d="M316.43,13.91C337,34.38,349.31,92.61,306.3,141.86c-11.26,2-.87-.18-62.63,13.54-8.93,16.28-49.77,90.19-61.2,104.78C172,273.56,135.76,294,120.72,301.73c-6.94,3.59-90.49,46.6-93.18,35.53-2.77-11.43,13.91-23.85,27.19-32.4,2.67-1.69,6.2-4,67.13-43,13.45-17.45,23.07-59.14,23.07-59.14-8.38,7.26-60.78,51.52-68.54,43.43-7.1-7.53,7.92-20.34,19-36.43a112.63,112.63,0,0,0,9.1-15.13c15-29.85,13.93-46.09,56.72-110.6a84.76,84.76,0,0,1,41.13-32.62C214.49,46.87,278,28.5,316.43,13.91Z" transform="translate(-14.16 -13.91)"/><path class="cls-2" d="M298.35,142.73l-.07.54-.07.54L282,147.42l-1,.22h0l-7.7,1.71-.91.2-.12,0-14.88,3.31-13.3,3-.78,1.42c-6.67,12.14-48.78,88.43-60.36,103.22-12.57,16-61,41.21-61.47,41.46a.51.51,0,0,1-.76-.41.51.51,0,0,1,.28-.5c.5-.25,48.7-25.31,61.13-41.18,11.88-15.17,56.17-95.63,60.76-104l.38-.7.12-.21,14.27-3.17,14.55-3.23.09,0,.93-.21,7.78-1.73h0l1-.23Z" transform="translate(-14.16 -13.91)"/><path class="cls-2" d="M54.88,304.14a.52.52,0,0,0-.18.73.52.52,0,0,0,.34.23.52.52,0,0,0,.4-.09c13.18-8.47,66.15-42.36,66.7-42.69l.08,0,0-.08c13.36-17.33,23.07-58.93,23.16-59.34l.36-1.55-1.2,1C128,216.75,83.36,252.68,76.74,245.79a.52.52,0,0,0-.74.71c3.75,3.9,16.21-2.11,38.1-18.37,13.32-9.87,26.06-20.62,29.95-24-1.9,7.71-10.81,42-22.55,57.32C119.2,263,67.83,295.81,54.88,304.14Z" transform="translate(-14.16 -13.91)"/></svg>